<svg xmlns="http://www.w3.org/2000/svg" viewBox="0 0 128 128" fill="none">
  <!-- Shadow -->
  <ellipse cx="68" cy="114" rx="56" ry="6" fill="#0f172a" opacity="0.1"/>
  
  <!-- Aerodynamic Body -->
  <path d="M10 52h80c25 0 34 10 34 20v2c0 10-9 20-34 20H10c-4 0-6-2-6-6V58c0-4 2-6 6-6z" fill="#ffffff" stroke="#111827" stroke-width="3" stroke-linejoin="round"/>
  
  <!-- Sleek Stripe -->
  <path d="M14 80h60c15 0 25 2 35 6v2c-10-4-20-8-35-8H14v-0z" fill="#3b82f6"/>
  
  <!-- Window Ribbon -->
  <rect x="18" y="62" width="64" height="6" rx="3" fill="#1c304f"/>
  
  <!-- Nose Glass -->
  <path d="M96 62h12c12 0 16 4 16 10v0c0 6-4 10-16 10H96V62z" fill="#1c304f"/>
</svg>
