<?xml version="1.0" standalone="no"?><!DOCTYPE svg PUBLIC "-//W3C//DTD SVG 1.1//EN" "http://www.w3.org/Graphics/SVG/1.1/DTD/svg11.dtd"><svg t="1773335134924" class="icon" viewBox="0 0 1024 1024" version="1.1" xmlns="http://www.w3.org/2000/svg" p-id="13901" width="16" height="16" xmlns:xlink="http://www.w3.org/1999/xlink"><path d="M903.04 215.202v530.02c0 3.48-0.52 6.9-1.5 10.2-0.8 2.62-1.9 5.16-3.3 7.56-0.354 0.638-0.826 1.352-7.96 12.64l-112.56 178.3a11.896 11.896 0 0 1-10.06 5.56H256.34c-4.08 0-7.88-2.1-10.06-5.56-0.152-0.242-127.638-202.176-119.92-189.96-1.66-2.68-2.96-5.54-3.88-8.54-1-3.28-1.52-6.74-1.52-10.22v-530c0-5.3 1.96-10.4 5.52-14.32l116.94-129.14a21.42 21.42 0 0 1 15.84-7.02h505.48c6.04 0 11.78 2.56 15.84 7.02l116.94 129.14a21.282 21.282 0 0 1 5.52 14.32z" fill="#4A81F6" p-id="13902"></path><path d="M903.04 215.202v530.02c0 3.48-0.52 6.9-1.5 10.2-0.8 2.62-1.9 5.16-3.3 7.56-0.172 0.322-8.086 12.84-7.96 12.64l-112.56 178.3a11.896 11.896 0 0 1-10.06 5.56h-42.28l128.82-204.06v-548.44l-128.82-142.26h39.36c6.04 0 11.78 2.56 15.84 7.02l116.94 129.14a21.282 21.282 0 0 1 5.52 14.32z" fill="#4070F6" p-id="13903"></path><path d="M708.16 1024H315.84c-14.882 0-26.946-12.064-26.946-26.946v-37.58h446.212v37.58c0 14.882-12.064 26.946-26.946 26.946z" fill="#4A81F6" p-id="13904"></path><path d="M735.106 64.524H288.894v-1.89C288.894 28.042 316.936 0 351.528 0h320.944c34.592 0 62.634 28.042 62.634 62.634z" fill="#4D5961" p-id="13905"></path><path d="M120.96 273.18h782.08v273.86H120.96z" fill="#90D8F9" p-id="13906"></path><path d="M854.2 273.18h48.84v273.86H854.2z" fill="#75CEF9" p-id="13907"></path><path d="M901.54 755.424c-0.8 2.62-1.9 5.16-3.3 7.56-0.354 0.638-0.826 1.352-7.96 12.64l-112.56 178.3a11.896 11.896 0 0 1-10.06 5.56H256.34c-4.08 0-7.88-2.1-10.06-5.56-0.152-0.242-127.638-202.176-119.92-189.96-1.66-2.68-2.96-5.54-3.88-8.54z" fill="#EFECEF" p-id="13908"></path><path d="M901.54 755.424c-0.8 2.62-1.9 5.16-3.3 7.56-0.142 0.284-8.086 12.84-7.96 12.64l-112.56 178.3a11.896 11.896 0 0 1-10.06 5.56h-42.28l128.82-204.06z" fill="#D3CED5" p-id="13909"></path><path d="M248.734 648.702m-47.158 0a47.158 47.158 0 1 0 94.316 0 47.158 47.158 0 1 0-94.316 0Z" fill="#F1D333" p-id="13910"></path><path d="M775.266 648.702m-47.158 0a47.158 47.158 0 1 0 94.316 0 47.158 47.158 0 1 0-94.316 0Z" fill="#F1D333" p-id="13911"></path><path d="M622.034 1024H401.966v-82.446c0-20.27 16.432-36.704 36.704-36.704h143.67c21.922 0 39.692 17.77 39.692 39.692V1024z" fill="#5E6B75" p-id="13912"></path><path d="M584.222 904.852h-39.618c20.882 0 37.812 16.928 37.812 37.812V1024h39.618v-81.338c0-20.882-16.93-37.81-37.812-37.81z" fill="#4D5961" p-id="13913"></path><path d="M542.368 979.878h-60.734a15.45 15.45 0 0 1-15.452-15.452 15.45 15.45 0 0 1 15.452-15.452h60.734a15.452 15.452 0 1 1 0 30.904z" fill="#EFECEF" p-id="13914"></path><path d="M453.144 181.168h-60.886a15.452 15.452 0 1 1 0-30.904h60.886c8.536 0 15.452 6.918 15.452 15.452s-6.916 15.452-15.452 15.452zM631.74 181.168h-60.884a15.452 15.452 0 1 1 0-30.904h60.884c8.536 0 15.452 6.918 15.452 15.452s-6.916 15.452-15.452 15.452z" fill="#F1D333" p-id="13915"></path><path d="M514.694 562.492a15.45 15.45 0 0 1-15.452-15.452V273.18a15.45 15.45 0 0 1 15.452-15.452 15.45 15.45 0 0 1 15.452 15.452v273.858a15.452 15.452 0 0 1-15.452 15.454z" fill="#75CEF9" p-id="13916"></path><path d="M586.536 633.75h-149.074a15.45 15.45 0 0 1-15.452-15.452 15.45 15.45 0 0 1 15.452-15.452h149.074a15.45 15.45 0 0 1 15.452 15.452 15.45 15.45 0 0 1-15.452 15.452zM586.536 694.56h-149.074a15.45 15.45 0 0 1-15.452-15.452 15.45 15.45 0 0 1 15.452-15.452h149.074a15.45 15.45 0 0 1 15.452 15.452 15.448 15.448 0 0 1-15.452 15.452z" fill="#4D5961" p-id="13917"></path><path d="M257.832 755.416v35.398a15.444 15.444 0 0 1-15.452 15.452 15.458 15.458 0 0 1-15.452-15.452v-35.398zM797.074 755.416v35.398a15.458 15.458 0 0 1-15.452 15.452 15.444 15.444 0 0 1-15.452-15.452v-35.398z" fill="#5E6B75" p-id="13918"></path></svg>